<svg width="158" height="159" fill="none" xmlns="http://www.w3.org/2000/svg"><path fill-rule="evenodd" clip-rule="evenodd" d="M48.72 108.095c-.155-.472-.455-.965-.864-1.527a1022.04 1022.04 0 0 1-12.364-17.3c-14.05-20.233-15.456-42.175-8.646-65.176 1.087-3.653 2.342-7.264 3.625-10.843a14.36 14.36 0 0 1 2.14-3.85c1.068-1.362 2.665-1.737 3.747-.168 1.72 2.467 3.569 4.855 5.417 7.243 4.636 5.992 9.274 11.986 11.912 19.233 3.021 8.318 3.504 17.057 3.166 25.82-.111 2.894-.326 5.786-.54 8.677-.282 3.794-.564 7.587-.612 11.383-.061 4.879.186 9.753.434 14.626v.002c.092 1.806.183 3.612.26 5.417.11.736.293 1.459.547 2.159.59-.234 1.18-.465 1.77-.696 5.97-2.337 11.873-4.649 16.182-9.776l.693.257c-.075 1.405-.15 2.843-.248 4.763l7.46-2.51a620.346 620.346 0 0 0-1.493 3.258v.001l-.002.003-.007.014-.544 1.192c.845.148 1.694.3 2.546.453 2.81.502 5.655 1.011 8.512 1.42.468.066 1.302-.515 1.508-.997l.097-.223c2.259-5.214 4.529-10.455 4.427-16.3-.103-6.077-.259-12.153-.468-18.229-.604-17.62 4.777-33.253 15.545-47.13a160.043 160.043 0 0 1 8.43-10.004c1.981-2.159 3.658-1.986 4.936.68a62.1 62.1 0 0 1 4.056 10.65c.342 1.28.699 2.56 1.057 3.844 1.486 5.332 2.983 10.7 3.421 16.13 1.199 14.843-3.091 28.533-11.278 40.893-5.471 8.257-11.512 16.106-19.001 22.714-.511.447-.059 1.967.355 3.36.116.389.229.769.317 1.112a4.854 4.854 0 0 1 1.562 3.574v33.11a4.87 4.87 0 0 1-4.869 4.869H51.268a4.87 4.87 0 0 1-4.869-4.869v-33.11c0-1.754.928-3.292 2.32-4.149Zm-7.931-25.3c.109.169.221.337.334.505l.585 1.259c1.308 2.816 2.62 5.641 4.027 8.408.533 1.046 1.182 2.03 1.832 3.016.424.642.848 1.284 1.24 1.944.432.847.819 1.716 1.157 2.604-4.609-2.304-7.372-5.61-9.316-9.606-7.034-14.448-11.811-29.459-10.954-45.785.328-6.609.936-13.208 3.747-19.33.285-.611.807-1.118 1.33-1.626.241-.235.483-.47.702-.715.245.23.528.446.81.662.607.463 1.213.925 1.443 1.53a572.714 572.714 0 0 1 7.212 19.886c.615 2.022.862 4.138.731 6.248a795.932 795.932 0 0 1-1.255-4.187l-.684.103c3.666 10.825 4.102 21.966 4.538 33.108.205 5.258.41 10.516.956 15.74l-.571.249c-2.255-4.125-4.52-8.24-6.796-12.346a15.708 15.708 0 0 0-.72-1.14l-.014-.022-.26-.557-.074.052ZM102.71 97.28l.679.604c.62-.553 1.26-1.086 1.9-1.62h.001c1.366-1.14 2.731-2.279 3.902-3.602 10.772-12.088 17.956-25.886 19.961-42.152l.081-.663c.87-7.05 1.737-14.077-.025-21.138l-.031-.124c-.539-2.151-1.137-4.534-3.641-5.136-2.302-.549-3.721 1.224-4.967 2.781l-.08.1-.105.13c-5.915 7.35-8.491 15.953-9.367 25.662 3.794-10.304 8.59-19.254 9.723-18.215-.149.383-.302.745-.447 1.089l-.096.227 3.747.544-.043.58-.117-.027-.18-.043h-.001c-1.914-.454-3.933-.934-5.233 1.007a47.03 47.03 0 0 0-7.433 20.14c-.24 1.797-.433 3.604-.627 5.41v.001c-.387 3.616-.774 7.232-1.536 10.77-1.213 5.598-2.701 11.118-4.189 16.632a798.113 798.113 0 0 0-1.876 7.043Zm-43.92 23.257v5.346h6.853c1.958 0 2.937-.903 2.937-2.372v-.602c0-1.468-.979-2.372-2.937-2.372h-6.852Zm-5.873 21.837h5.874v-10.918h5.873c2.448 0 3.916.978 3.916 3.915v7.003h5.873v-8.245c0-2.711-.828-4.405-2.974-5.196v-.489c2.07-1.055 2.974-2.824 2.974-4.933v-1.129c0-4.895-3.614-7.417-8.396-7.417h-13.14v27.409Zm24.364-11.86c0 6.853 4.82 12.237 11.182 12.237h1.883c6.25 0 10.655-3.916 10.655-10.166h-5.874c0 3.087-2.183 4.593-5.007 4.593h-1.393c-3.313 0-5.572-2.748-5.572-7.153v-2.711c0-4.405 2.259-7.154 5.572-7.154h1.393c2.824 0 5.007 1.507 5.007 4.594h5.874c0-6.25-4.405-10.166-10.655-10.166h-1.883c-6.362 0-11.182 5.384-11.182 12.237v3.689ZM34.733 38.067l-.665 2.834c-.465 1.984-.949 4.049-1.372 5.826-.66-2.838.436-7.278 2.037-8.66Zm6.084 44.695c-.135-.336-.27-.672-.407-1.008-2.039-6.184-4.08-12.367-6.122-18.546a47.35 47.35 0 0 0 1.846 7.77c.976 2.764 2.097 5.482 3.219 8.2.354.859.708 1.717 1.057 2.576l.346 1.05.061-.042Z" fill="black"/></svg>